<?xml version="1.0" standalone="no"?>
<!DOCTYPE svg PUBLIC "-//W3C//DTD SVG 20010904//EN"
 "http://www.w3.org/TR/2001/REC-SVG-20010904/DTD/svg10.dtd">
<svg version="1.0" xmlns="http://www.w3.org/2000/svg"
 width="512.000000pt" height="512.000000pt" viewBox="0 0 512.000000 512.000000"
 preserveAspectRatio="xMidYMid meet">

<g transform="translate(0.000000,512.000000) scale(0.100000,-0.100000)"
fill="#000000" stroke="none">
<path d="M2296 5094 c-72 -23 -149 -103 -172 -179 -20 -71 -15 -145 16 -205
l22 -42 -42 -41 c-86 -82 -110 -209 -61 -314 l24 -51 -37 -33 c-89 -77 -116
-204 -69 -325 4 -12 -50 -14 -386 -14 -324 0 -398 -3 -427 -15 -132 -55 -200
-200 -160 -340 14 -45 29 -69 69 -109 88 -88 75 -86 688 -86 371 0 535 3 553
11 51 23 55 103 7 128 -13 7 -196 11 -551 11 -586 0 -571 -2 -610 63 -36 59
-17 136 43 172 31 19 57 20 644 23 l612 3 21 26 c35 45 21 92 -34 113 -15 5
-81 10 -148 10 l-120 0 -33 33 c-19 19 -37 47 -41 62 -11 43 15 105 55 132 31
21 45 23 168 23 129 0 135 1 158 25 14 13 25 36 25 50 0 14 -11 37 -25 50 -22
23 -32 25 -112 25 -105 0 -149 18 -176 70 -37 71 3 158 82 180 20 5 73 10 118
10 73 0 84 2 97 22 21 30 20 81 -1 100 -10 9 -46 18 -80 21 -73 6 -117 29
-138 73 -30 63 -10 129 48 164 31 19 55 20 735 20 770 0 790 -1 917 -59 33
-16 96 -54 140 -86 43 -31 90 -61 103 -66 13 -5 77 -9 143 -9 l119 0 0 -574 0
-575 -207 -3 c-245 -4 -207 11 -436 -167 -238 -185 -237 -184 -237 -470 0
-108 -5 -212 -10 -233 -6 -21 -27 -51 -50 -71 -63 -57 -150 -62 -216 -12 -68
52 -68 56 -74 402 l-5 311 -30 44 c-20 28 -49 53 -84 71 l-55 27 -251 0 c-239
0 -252 -1 -273 -20 -32 -30 -30 -82 4 -109 25 -20 39 -21 263 -21 189 0 241
-3 257 -14 18 -14 19 -32 25 -318 4 -257 8 -310 23 -350 25 -66 95 -141 164
-175 48 -24 69 -28 137 -28 102 1 166 27 230 96 83 89 89 112 93 359 2 126 7
227 14 243 10 26 276 244 335 275 14 8 87 12 212 12 178 0 190 -1 196 -19 9
-31 80 -89 122 -100 21 -6 129 -11 241 -11 202 0 203 0 227 25 14 13 25 36 25
50 0 14 -11 37 -25 50 -24 25 -25 25 -228 25 -185 0 -205 2 -220 18 -16 17
-17 80 -17 695 l0 676 22 15 c19 13 58 16 224 16 l203 0 20 26 c34 43 26 86
-20 109 -34 18 -366 21 -439 4 -53 -12 -105 -49 -132 -95 l-20 -34 -110 0
-110 0 -79 56 c-89 62 -193 113 -289 140 -60 17 -122 18 -810 21 -643 2 -752
0 -794 -13z"/>
<path d="M1700 4669 c-878 -353 -1450 -1200 -1450 -2144 0 -225 39 -506 77
-547 22 -24 78 -23 103 2 25 25 24 37 -1 175 -30 163 -37 460 -15 633 33 253
94 458 206 687 243 496 672 886 1185 1076 111 41 125 52 125 99 0 85 -57 89
-230 19z"/>
<path d="M1665 4207 c-33 -18 -66 -44 -75 -59 -13 -25 -13 -31 0 -55 9 -16 28
-34 44 -42 26 -12 33 -10 89 19 34 18 70 39 80 48 23 21 22 77 -3 102 -28 28
-66 25 -135 -13z"/>
<path d="M853 3345 c-48 -34 -147 -334 -179 -543 -21 -141 -21 -413 0 -549 28
-184 84 -379 116 -408 41 -38 120 -8 120 45 0 10 -15 72 -34 137 -52 180 -70
312 -69 503 1 242 35 424 123 648 22 57 40 110 40 118 0 23 -46 64 -72 64 -13
0 -33 -7 -45 -15z"/>
<path d="M4222 3284 c-42 -17 -50 -53 -27 -113 83 -216 117 -406 117 -646 0
-246 -33 -425 -123 -662 l-24 -62 21 -28 c23 -30 69 -42 102 -24 40 22 126
295 158 502 21 138 21 410 0 549 -21 134 -66 308 -106 404 -36 86 -62 104
-118 80z"/>
<path d="M4670 3133 c-24 -31 -24 -25 9 -181 33 -158 44 -310 38 -523 -6 -195
-6 -196 17 -218 40 -38 94 -24 117 31 22 51 19 491 -4 623 -44 253 -61 295
-122 295 -25 0 -39 -7 -55 -27z"/>
<path d="M2505 3045 c-19 -18 -25 -35 -25 -70 0 -37 -3 -45 -18 -45 -37 0
-140 -61 -185 -109 -46 -49 -88 -123 -101 -173 -6 -26 -10 -28 -55 -28 -58 0
-81 -21 -81 -72 0 -48 25 -68 83 -68 43 0 47 -2 53 -27 13 -51 55 -125 101
-174 45 -48 148 -109 185 -109 15 0 18 -8 18 -45 0 -35 6 -52 25 -70 52 -53
125 -13 125 70 0 37 3 45 18 45 37 0 140 61 185 109 46 49 88 123 101 174 6
25 10 27 55 27 58 0 81 21 81 72 0 48 -25 68 -83 68 -43 0 -47 2 -53 28 -13
50 -55 124 -101 173 -45 48 -148 109 -185 109 -15 0 -18 8 -18 45 0 54 -33 95
-75 95 -14 0 -37 -11 -50 -25z m126 -265 c47 -13 115 -72 141 -124 16 -29 22
-59 22 -106 0 -206 -238 -316 -394 -182 -59 50 -84 103 -84 182 0 47 6 77 22
106 25 49 94 111 137 123 42 13 113 13 156 1z"/>
<path d="M2525 2628 c-49 -26 -60 -86 -24 -132 43 -54 129 -18 129 55 0 41 -9
58 -41 74 -33 18 -38 18 -64 3z"/>
<path d="M1605 2657 c-66 -22 -99 -43 -144 -92 -79 -86 -85 -110 -89 -355 -2
-126 -7 -227 -14 -243 -10 -26 -276 -244 -335 -275 -14 -8 -87 -12 -212 -12
-178 0 -190 1 -196 19 -9 31 -80 89 -122 100 -21 6 -129 11 -241 11 -202 0
-203 0 -227 -25 -32 -31 -32 -69 0 -100 24 -25 25 -25 228 -25 185 0 205 -2
220 -18 15 -16 17 -53 17 -316 l0 -297 25 -24 c31 -32 74 -33 103 -2 21 23 22
30 22 274 l0 252 208 3 c244 4 206 -11 435 167 238 185 237 184 237 470 0 108
5 212 10 233 6 21 27 51 50 71 63 57 150 62 216 12 68 -52 68 -56 74 -402 l5
-311 30 -44 c20 -28 49 -53 84 -70 l55 -28 918 0 c1014 0 958 4 998 -63 24
-39 25 -78 4 -123 -34 -71 -9 -69 -691 -72 l-612 -3 -21 -26 c-35 -45 -21 -92
34 -113 15 -5 81 -10 148 -10 l120 0 33 -33 c19 -19 37 -47 41 -62 11 -43 -15
-105 -55 -132 -31 -21 -45 -23 -168 -23 -129 0 -135 -1 -158 -25 -14 -13 -25
-36 -25 -50 0 -14 11 -37 25 -50 22 -23 32 -25 117 -25 76 0 99 -4 126 -20 66
-41 79 -136 25 -192 -35 -36 -78 -48 -179 -48 -93 0 -114 -13 -114 -72 0 -48
23 -64 97 -71 73 -6 117 -29 138 -73 30 -63 10 -129 -48 -164 -31 -19 -55 -20
-735 -20 -770 0 -790 1 -917 59 -33 16 -96 54 -140 86 -43 31 -90 61 -103 66
-13 5 -77 9 -143 9 l-119 0 0 194 0 195 -26 20 c-33 26 -65 27 -95 2 -24 -19
-24 -20 -27 -268 -2 -238 -3 -249 -23 -266 -19 -15 -46 -17 -224 -17 l-204 0
-20 -26 c-34 -43 -26 -86 20 -109 34 -18 366 -21 439 -4 53 12 105 49 132 95
l20 34 110 0 110 0 79 -56 c89 -62 193 -113 289 -140 60 -17 124 -18 804 -22
853 -3 812 -7 903 84 83 83 104 187 58 298 l-24 59 40 40 c84 81 109 210 60
314 l-24 51 37 33 c89 77 116 204 69 325 -4 12 49 14 380 14 315 0 392 3 427
15 135 48 207 196 166 340 -14 45 -29 69 -69 109 -92 91 -26 86 -1071 86 -771
0 -915 2 -932 14 -18 14 -19 32 -25 318 -6 345 -9 363 -85 447 -60 67 -135
103 -222 107 -39 2 -84 -2 -107 -9z"/>
<path d="M4675 2000 c-10 -11 -38 -80 -62 -152 -211 -636 -712 -1146 -1338
-1363 -44 -16 -90 -37 -102 -48 -40 -36 -22 -108 31 -121 56 -14 393 130 579
247 204 129 395 295 538 465 204 244 372 553 453 835 23 80 24 91 11 117 -23
45 -78 55 -110 20z"/>
<path d="M3540 1061 c-252 -136 -280 -155 -280 -196 0 -31 41 -75 70 -75 37 0
280 132 308 168 28 37 4 102 -43 116 -12 3 -36 -2 -55 -13z"/>
</g>
</svg>
