<?xml version="1.0" encoding="UTF-8"?>
<svg id="Layer_1" xmlns="http://www.w3.org/2000/svg" version="1.1" viewBox="0 0 512 512">
  <!-- Generator: Adobe Illustrator 29.0.0, SVG Export Plug-In . SVG Version: 2.1.0 Build 186)  -->
  <defs>
    <style>
      .st0 {
        fill: #f0f0f0;
      }
    </style>
  </defs>
  <path class="st0" d="M229.6,2.6c-7.2,2.3-14.9,10.3-17.2,17.9-2,7.1-1.5,14.5,1.6,20.5l2.2,4.2-4.2,4.1c-8.6,8.2-11,20.9-6.1,31.4l2.4,5.1-3.7,3.3c-8.9,7.7-11.6,20.4-6.9,32.5.4,1.2-5,1.4-38.6,1.4s-39.8.3-42.7,1.5c-13.2,5.5-20,20-16,34,1.4,4.5,2.9,6.9,6.9,10.9,8.8,8.8,7.5,8.6,68.8,8.6s53.5-.3,55.3-1.1c5.1-2.3,5.5-10.3.7-12.8-1.3-.7-19.6-1.1-55.1-1.1-58.6,0-57.1.2-61-6.3-3.6-5.9-1.7-13.6,4.3-17.2,3.1-1.9,5.7-2,64.4-2.3l61.2-.3,2.1-2.6c3.5-4.5,2.1-9.2-3.4-11.3-1.5-.5-8.1-1-14.8-1h-12l-3.3-3.3c-1.9-1.9-3.7-4.7-4.1-6.2-1.1-4.3,1.5-10.5,5.5-13.2,3.1-2.1,4.5-2.3,16.8-2.3s13.5-.1,15.8-2.5c1.4-1.3,2.5-3.6,2.5-5s-1.1-3.7-2.5-5c-2.2-2.3-3.2-2.5-11.2-2.5s-14.9-1.8-17.6-7c-3.7-7.1.3-15.8,8.2-18,2-.5,7.3-1,11.8-1,7.3,0,8.4-.2,9.7-2.2,2.1-3,2-8.1-.1-10-1-.9-4.6-1.8-8-2.1-7.3-.6-11.7-2.9-13.8-7.3-3-6.3-1-12.9,4.8-16.4,3.1-1.9,5.5-2,73.5-2s79,.1,91.7,5.9c3.3,1.6,9.6,5.4,14,8.6,4.3,3.1,9,6.1,10.3,6.6s7.7.9,14.3.9h11.9v114.9l-20.7.3c-24.5.4-20.7-1.1-43.6,16.7-23.8,18.5-23.7,18.4-23.7,47s-.5,21.2-1,23.3c-.6,2.1-2.7,5.1-5,7.1-6.3,5.7-15,6.2-21.6,1.2-6.8-5.2-6.8-5.6-7.4-40.2l-.5-31.1-3-4.4c-2-2.8-4.9-5.3-8.4-7.1l-5.5-2.7h-25.1c-23.9,0-25.2.1-27.3,2-3.2,3-3,8.2.4,10.9,2.5,2,3.9,2.1,26.3,2.1s24.1.3,25.7,1.4c1.8,1.4,1.9,3.2,2.5,31.8.4,25.7.8,31,2.3,35,2.5,6.6,9.5,14.1,16.4,17.5,4.8,2.4,6.9,2.8,13.7,2.8,10.2-.1,16.6-2.7,23-9.6,8.3-8.9,8.9-11.2,9.3-35.9.2-12.6.7-22.7,1.4-24.3,1-2.6,27.6-24.4,33.5-27.5,1.4-.8,8.7-1.2,21.2-1.2,17.8,0,19,.1,19.6,1.9.9,3.1,8,8.9,12.2,10,2.1.6,12.9,1.1,24.1,1.1,20.2,0,20.3,0,22.7-2.5,1.4-1.3,2.5-3.6,2.5-5s-1.1-3.7-2.5-5c-2.4-2.5-2.5-2.5-22.8-2.5s-20.5-.2-22-1.8c-1.6-1.7-1.7-8-1.7-69.5V27.1l2.2-1.5c1.9-1.3,5.8-1.6,22.4-1.6h20.3l2-2.6c3.4-4.3,2.6-8.6-2-10.9-3.4-1.8-36.6-2.1-43.9-.4-5.3,1.2-10.5,4.9-13.2,9.5l-2,3.4h-22l-7.9-5.6c-8.9-6.2-19.3-11.3-28.9-14-6-1.7-12.2-1.8-81-2.1-64.3-.2-75.2,0-79.4,1.3Z"/>
  <path class="st0" d="M170,45.1C82.2,80.4,25,165.1,25,259.5s3.9,50.6,7.7,54.7c2.2,2.4,7.8,2.3,10.3-.2s2.4-3.7-.1-17.5c-3-16.3-3.7-46-1.5-63.3,3.3-25.3,9.4-45.8,20.6-68.7,24.3-49.6,67.2-88.6,118.5-107.6,11.1-4.1,12.5-5.2,12.5-9.9,0-8.5-5.7-8.9-23-1.9Z"/>
  <path class="st0" d="M166.5,91.3c-3.3,1.8-6.6,4.4-7.5,5.9-1.3,2.5-1.3,3.1,0,5.5.9,1.6,2.8,3.4,4.4,4.2,2.6,1.2,3.3,1,8.9-1.9,3.4-1.8,7-3.9,8-4.8,2.3-2.1,2.2-7.7-.3-10.2s-6.6-2.5-13.5,1.3Z"/>
  <path class="st0" d="M85.3,177.5c-4.8,3.4-14.7,33.4-17.9,54.3-2.1,14.1-2.1,41.3,0,54.9,2.8,18.4,8.4,37.9,11.6,40.8,4.1,3.8,12,.8,12-4.5s-1.5-7.2-3.4-13.7c-5.2-18-7-31.2-6.9-50.3.1-24.2,3.5-42.4,12.3-64.8,2.2-5.7,4-11,4-11.8,0-2.3-4.6-6.4-7.2-6.4s-3.3.7-4.5,1.5Z"/>
  <path class="st0" d="M422.2,183.6c-4.2,1.7-5,5.3-2.7,11.3,8.3,21.6,11.7,40.6,11.7,64.6s-3.3,42.5-12.3,66.2l-2.4,6.2,2.1,2.8c2.3,3,6.9,4.2,10.2,2.4,4-2.2,12.6-29.5,15.8-50.2,2.1-13.8,2.1-41,0-54.9-2.1-13.4-6.6-30.8-10.6-40.4-3.6-8.6-6.2-10.4-11.8-8Z"/>
  <path class="st0" d="M467,198.7c-2.4,3.1-2.4,2.5.9,18.1,3.3,15.8,4.4,31,3.8,52.3-.6,19.5-.6,19.6,1.7,21.8,4,3.8,9.4,2.4,11.7-3.1,2.2-5.1,1.9-49.1-.4-62.3-4.4-25.3-6.1-29.5-12.2-29.5s-3.9.7-5.5,2.7Z"/>
  <path class="st0" d="M250.5,207.5c-1.9,1.8-2.5,3.5-2.5,7s-.3,4.5-1.8,4.5c-3.7,0-14,6.1-18.5,10.9-4.6,4.9-8.8,12.3-10.1,17.3-.6,2.6-1,2.8-5.5,2.8s-8.1,2.1-8.1,7.2,2.5,6.8,8.3,6.8,4.7.2,5.3,2.7c1.3,5.1,5.5,12.5,10.1,17.4,4.5,4.8,14.8,10.9,18.5,10.9s1.8.8,1.8,4.5.6,5.2,2.5,7c5.2,5.3,12.5,1.3,12.5-7s.3-4.5,1.8-4.5c3.7,0,14-6.1,18.5-10.9,4.6-4.9,8.8-12.3,10.1-17.4.6-2.5,1-2.7,5.5-2.7s8.1-2.1,8.1-7.2-2.5-6.8-8.3-6.8-4.7-.2-5.3-2.8c-1.3-5-5.5-12.4-10.1-17.3-4.5-4.8-14.8-10.9-18.5-10.9s-1.8-.8-1.8-4.5c0-5.4-3.3-9.5-7.5-9.5s-3.7,1.1-5,2.5ZM263.1,234c4.7,1.3,11.5,7.2,14.1,12.4,1.6,2.9,2.2,5.9,2.2,10.6,0,20.6-23.8,31.6-39.4,18.2-5.9-5-8.4-10.3-8.4-18.2s.6-7.7,2.2-10.6c2.5-4.9,9.4-11.1,13.7-12.3,4.2-1.3,11.3-1.3,15.6-.1Z"/>
  <path class="st0" d="M252.5,249.2c-4.9,2.6-6,8.6-2.4,13.2,4.3,5.4,12.9,1.8,12.9-5.5s-.9-5.8-4.1-7.4c-3.3-1.8-3.8-1.8-6.4-.3Z"/>
  <path class="st0" d="M160.5,246.3c-6.6,2.2-9.9,4.3-14.4,9.2-7.9,8.6-8.5,11-8.9,35.5-.2,12.6-.7,22.7-1.4,24.3-1,2.6-27.6,24.4-33.5,27.5-1.4.8-8.7,1.2-21.2,1.2-17.8,0-19-.1-19.6-1.9-.9-3.1-8-8.9-12.2-10-2.1-.6-12.9-1.1-24.1-1.1-20.2,0-20.3,0-22.7,2.5-3.2,3.1-3.2,6.9,0,10,2.4,2.5,2.5,2.5,22.8,2.5s20.5.2,22,1.8,1.7,5.3,1.7,31.6v29.7l2.5,2.4c3.1,3.2,7.4,3.3,10.3.2,2.1-2.3,2.2-3,2.2-27.4v-25.2l20.8-.3c24.4-.4,20.6,1.1,43.5-16.7,23.8-18.5,23.7-18.4,23.7-47s.5-21.2,1-23.3c.6-2.1,2.7-5.1,5-7.1,6.3-5.7,15-6.2,21.6-1.2,6.8,5.2,6.8,5.6,7.4,40.2l.5,31.1,3,4.4c2,2.8,4.9,5.3,8.4,7l5.5,2.8h91.8c101.4,0,95.8-.4,99.8,6.3,2.4,3.9,2.5,7.8.4,12.3-3.4,7.1-.9,6.9-69.1,7.2l-61.2.3-2.1,2.6c-3.5,4.5-2.1,9.2,3.4,11.3,1.5.5,8.1,1,14.8,1h12l3.3,3.3c1.9,1.9,3.7,4.7,4.1,6.2,1.1,4.3-1.5,10.5-5.5,13.2-3.1,2.1-4.5,2.3-16.8,2.3s-13.5.1-15.8,2.5c-1.4,1.3-2.5,3.6-2.5,5s1.1,3.7,2.5,5c2.2,2.3,3.2,2.5,11.7,2.5s9.9.4,12.6,2c6.6,4.1,7.9,13.6,2.5,19.2-3.5,3.6-7.8,4.8-17.9,4.8s-11.4,1.3-11.4,7.2,2.3,6.4,9.7,7.1c7.3.6,11.7,2.9,13.8,7.3,3,6.3,1,12.9-4.8,16.4-3.1,1.9-5.5,2-73.5,2s-79-.1-91.7-5.9c-3.3-1.6-9.6-5.4-14-8.6-4.3-3.1-9-6.1-10.3-6.6s-7.7-.9-14.3-.9h-11.9v-38.9l-2.6-2c-3.3-2.6-6.5-2.7-9.5-.2-2.4,1.9-2.4,2-2.7,26.8-.2,23.8-.3,24.9-2.3,26.6-1.9,1.5-4.6,1.7-22.4,1.7H4.1l-2,2.6c-3.4,4.3-2.6,8.6,2,10.9,3.4,1.8,36.6,2.1,43.9.4,5.3-1.2,10.5-4.9,13.2-9.5l2-3.4h22l7.9,5.6c8.9,6.2,19.3,11.3,28.9,14,6,1.7,12.4,1.8,80.4,2.2,85.3.3,81.2.7,90.3-8.4s10.4-18.7,5.8-29.8l-2.4-5.9,4-4c8.4-8.1,10.9-21,6-31.4l-2.4-5.1,3.7-3.3c8.9-7.7,11.6-20.4,6.9-32.5-.4-1.2,4.9-1.4,38-1.4s39.2-.3,42.7-1.5c13.5-4.8,20.7-19.6,16.6-34-1.4-4.5-2.9-6.9-6.9-10.9-9.2-9.1-2.6-8.6-107.1-8.6s-91.5-.2-93.2-1.4c-1.8-1.4-1.9-3.2-2.5-31.8-.6-34.5-.9-36.3-8.5-44.7-6-6.7-13.5-10.3-22.2-10.7-3.9-.2-8.4.2-10.7.9Z"/>
  <path class="st0" d="M467.5,312c-1,1.1-3.8,8-6.2,15.2-21.1,63.6-71.2,114.6-133.8,136.3-4.4,1.6-9,3.7-10.2,4.8-4,3.6-2.2,10.8,3.1,12.1,5.6,1.4,39.3-13,57.9-24.7,20.4-12.9,39.5-29.5,53.8-46.5,20.4-24.4,37.2-55.3,45.3-83.5,2.3-8,2.4-9.1,1.1-11.7-2.3-4.5-7.8-5.5-11-2Z"/>
  <path class="st0" d="M354,405.9c-25.2,13.6-28,15.5-28,19.6s4.1,7.5,7,7.5,28-13.2,30.8-16.8c2.8-3.7.4-10.2-4.3-11.6-1.2-.3-3.6.2-5.5,1.3Z"/>
</svg>